<!DOCTYPE svg PUBLIC "-//W3C//DTD SVG 1.1//EN" "http://www.w3.org/Graphics/SVG/1.1/DTD/svg11.dtd">
                <svg xmlns="http://www.w3.org/2000/svg" xmlns:xlink="http://www.w3.org/1999/xlink" 
                width="269" height="1139" shape-rendering="optimizeSpeed">
                
                <g>
                   <rect x="50" y="65"
            width="76.8" height="30"
            rx="3" ry="3"
            style="fill:#90caf9; stroke:#444; stroke-width:1" />
                   <title>Memory</title>
            <text x="65" y="85"
                font-family="monospace" font-size="13" fill="#222">
                <tspan x="65" y="85">Memory</tspan>
            </text>
                   
                   
                </g>
                <g>
                   <rect x="50" y="113.5"
            width="84.6" height="30"
            rx="3" ry="3"
            style="fill:#90caf9; stroke:#444; stroke-width:1" />
                   <title>version</title>
            <text x="65" y="133.5"
                font-family="monospace" font-size="13" fill="#222">
                <tspan x="65" y="133.5">version</tspan>
            </text>
                   
                   
                </g>
                <g>
                   <rect x="50" y="162"
            width="61.2" height="30"
            rx="3" ry="3"
            style="fill:#90caf9; stroke:#444; stroke-width:1" />
                   <title>date</title>
            <text x="65" y="182"
                font-family="monospace" font-size="13" fill="#222">
                <tspan x="65" y="182">date</tspan>
            </text>
                   
                   
                </g>
                <g>
                   <rect x="50" y="210.5"
            width="69" height="30"
            rx="3" ry="3"
            style="fill:#90caf9; stroke:#444; stroke-width:1" />
                   <title>stats</title>
            <text x="65" y="230.5"
                font-family="monospace" font-size="13" fill="#222">
                <tspan x="65" y="230.5">stats</tspan>
            </text>
                   
                   
                </g>
                <g>
                   <rect x="50" y="259"
            width="108" height="30"
            rx="3" ry="3"
            style="fill:#90caf9; stroke:#444; stroke-width:1" />
                   <title>RoomMemory</title>
            <text x="65" y="279"
                font-family="monospace" font-size="13" fill="#222">
                <tspan x="65" y="279">RoomMemory</tspan>
            </text>
                   
                   
                </g>
                <g>
                   <rect x="50" y="307.5"
            width="69" height="30"
            rx="3" ry="3"
            style="fill:#90caf9; stroke:#444; stroke-width:1" />
                   <title>rooms</title>
            <text x="65" y="327.5"
                font-family="monospace" font-size="13" fill="#222">
                <tspan x="65" y="327.5">rooms</tspan>
            </text>
                   
                   
                </g>
                <g>
                   <rect x="50" y="356"
            width="61.2" height="30"
            rx="3" ry="3"
            style="fill:#90caf9; stroke:#444; stroke-width:1" />
                   <title>name</title>
            <text x="65" y="376"
                font-family="monospace" font-size="13" fill="#222">
                <tspan x="65" y="376">name</tspan>
            </text>
                   
                   
                </g>
                <g>
                   <rect x="50" y="404.5"
            width="108" height="30"
            rx="3" ry="3"
            style="fill:#90caf9; stroke:#444; stroke-width:1" />
                   <title>RoomMemory</title>
            <text x="65" y="424.5"
                font-family="monospace" font-size="13" fill="#222">
                <tspan x="65" y="424.5">RoomMemory</tspan>
            </text>
                   
                   
                </g>
                <g>
                   <rect x="50" y="453"
            width="193.79999999999998" height="30"
            rx="3" ry="3"
            style="fill:#90caf9; stroke:#444; stroke-width:1" />
                   <title>lastProgressChecktime</title>
            <text x="65" y="473"
                font-family="monospace" font-size="13" fill="#222">
                <tspan x="65" y="473">lastProgressChecktime</tspan>
            </text>
                   
                   
                </g>
                <g>
                   <rect x="50" y="501.5"
            width="123.6" height="30"
            rx="3" ry="3"
            style="fill:#90caf9; stroke:#444; stroke-width:1" />
                   <title>lastProgress</title>
            <text x="65" y="521.5"
                font-family="monospace" font-size="13" fill="#222">
                <tspan x="65" y="521.5">lastProgress</tspan>
            </text>
                   
                   
                </g>
                <g>
                   <rect x="50" y="550"
            width="123.6" height="30"
            rx="3" ry="3"
            style="fill:#90caf9; stroke:#444; stroke-width:1" />
                   <title>isUnderSiege</title>
            <text x="65" y="570"
                font-family="monospace" font-size="13" fill="#222">
                <tspan x="65" y="570">isUnderSiege</tspan>
            </text>
                   
                   
                </g>
                <g>
                   <rect x="50" y="598.5"
            width="115.8" height="30"
            rx="3" ry="3"
            style="fill:#90caf9; stroke:#444; stroke-width:1" />
                   <title>CreepMemory</title>
            <text x="65" y="618.5"
                font-family="monospace" font-size="13" fill="#222">
                <tspan x="65" y="618.5">CreepMemory</tspan>
            </text>
                   
                   
                </g>
                <g>
                   <rect x="50" y="647"
            width="92.4" height="30"
            rx="3" ry="3"
            style="fill:#90caf9; stroke:#444; stroke-width:1" />
                   <title>homeRoom</title>
            <text x="65" y="667"
                font-family="monospace" font-size="13" fill="#222">
                <tspan x="65" y="667">homeRoom</tspan>
            </text>
                   
                   
                </g>
                <g>
                   <rect x="50" y="695.5"
            width="61.2" height="30"
            rx="3" ry="3"
            style="fill:#90caf9; stroke:#444; stroke-width:1" />
                   <title>role</title>
            <text x="65" y="715.5"
                font-family="monospace" font-size="13" fill="#222">
                <tspan x="65" y="715.5">role</tspan>
            </text>
                   
                   
                </g>
                <g>
                   <rect x="50" y="744"
            width="76.8" height="30"
            rx="3" ry="3"
            style="fill:#90caf9; stroke:#444; stroke-width:1" />
                   <title>NodeJS</title>
            <text x="65" y="764"
                font-family="monospace" font-size="13" fill="#222">
                <tspan x="65" y="764">NodeJS</tspan>
            </text>
                   
                   
                </g>
                <g>
                   <rect x="50" y="792.5"
            width="76.8" height="30"
            rx="3" ry="3"
            style="fill:#90caf9; stroke:#444; stroke-width:1" />
                   <title>Global</title>
            <text x="65" y="812.5"
                font-family="monospace" font-size="13" fill="#222">
                <tspan x="65" y="812.5">Global</tspan>
            </text>
                   
                   
                </g>
                <g>
                   <rect x="50" y="841"
            width="45.6" height="30"
            rx="3" ry="3"
            style="fill:#90caf9; stroke:#444; stroke-width:1" />
                   <title>cc</title>
            <text x="65" y="861"
                font-family="monospace" font-size="13" fill="#222">
                <tspan x="65" y="861">cc</tspan>
            </text>
                   
                   
                </g>
                <g>
                   <rect x="50" y="889.5"
            width="92.4" height="30"
            rx="3" ry="3"
            style="fill:#90caf9; stroke:#444; stroke-width:1" />
                   <title>Profiler</title>
            <text x="65" y="909.5"
                font-family="monospace" font-size="13" fill="#222">
                <tspan x="65" y="909.5">Profiler</tspan>
            </text>
                   
                   
                </g>
                <g>
                   <rect x="50" y="938"
            width="53.4" height="30"
            rx="3" ry="3"
            style="fill:#90caf9; stroke:#444; stroke-width:1" />
                   <title>log</title>
            <text x="65" y="958"
                font-family="monospace" font-size="13" fill="#222">
                <tspan x="65" y="958">log</tspan>
            </text>
                   
                   
                </g>
                <g>
                   <rect x="50" y="986.5"
            width="69" height="30"
            rx="3" ry="3"
            style="fill:#90caf9; stroke:#444; stroke-width:1" />
                   <title>level</title>
            <text x="65" y="1006.5"
                font-family="monospace" font-size="13" fill="#222">
                <tspan x="65" y="1006.5">level</tspan>
            </text>
                   
                   
                </g>
                <g>
                   <rect x="50" y="1035"
            width="108" height="30"
            rx="3" ry="3"
            style="fill:#90caf9; stroke:#444; stroke-width:1" />
                   <title>showSource</title>
            <text x="65" y="1055"
                font-family="monospace" font-size="13" fill="#222">
                <tspan x="65" y="1055">showSource</tspan>
            </text>
                   
                   
                </g>
                <g>
                   <rect x="50" y="1083.5"
            width="92.4" height="30"
            rx="3" ry="3"
            style="fill:#90caf9; stroke:#444; stroke-width:1" />
                   <title>showTick</title>
            <text x="65" y="1103.5"
                font-family="monospace" font-size="13" fill="#222">
                <tspan x="65" y="1103.5">showTick</tspan>
            </text>
                   
                   
                </g>
            <g>
               <rect x="25" y="13.75"
            width="216.6" height="24"
            style="fill:#fff59d; stroke:#444; stroke-width:1" />
               <circle cx="25" cy="25" r="15"
        style="fill:#fff59d; stroke:#444; stroke-width:1" />
               <title>Program: source module</title>
            <text x="55" y="30"
                font-family="monospace" font-size="13" fill="#222">
                <tspan x="55" y="30">Program: source module</tspan>
            </text>
            </g>
            <g>
               <path d="M25, 40 L25 76 Q25 80
                29 80
                L42 80 "
        style="fill:none; stroke:#444; stroke-width:1" />
               <path d="M42, 77 L50, 80 L42, 83 Z" 
        fill="#333" />
            </g>
            <g>
               <path d="M25, 40 L25 124.5 Q25 128.5
                29 128.5
                L42 128.5 "
        style="fill:none; stroke:#444; stroke-width:1" />
               <path d="M42, 125.5 L50, 128.5 L42, 131.5 Z" 
        fill="#333" />
            </g>
            <g>
               <path d="M25, 40 L25 173 Q25 177
                29 177
                L42 177 "
        style="fill:none; stroke:#444; stroke-width:1" />
               <path d="M42, 174 L50, 177 L42, 180 Z" 
        fill="#333" />
            </g>
            <g>
               <path d="M25, 40 L25 221.5 Q25 225.5
                29 225.5
                L42 225.5 "
        style="fill:none; stroke:#444; stroke-width:1" />
               <path d="M42, 222.5 L50, 225.5 L42, 228.5 Z" 
        fill="#333" />
            </g>
            <g>
               <path d="M25, 40 L25 270 Q25 274
                29 274
                L42 274 "
        style="fill:none; stroke:#444; stroke-width:1" />
               <path d="M42, 271 L50, 274 L42, 277 Z" 
        fill="#333" />
            </g>
            <g>
               <path d="M25, 40 L25 318.5 Q25 322.5
                29 322.5
                L42 322.5 "
        style="fill:none; stroke:#444; stroke-width:1" />
               <path d="M42, 319.5 L50, 322.5 L42, 325.5 Z" 
        fill="#333" />
            </g>
            <g>
               <path d="M25, 40 L25 367 Q25 371
                29 371
                L42 371 "
        style="fill:none; stroke:#444; stroke-width:1" />
               <path d="M42, 368 L50, 371 L42, 374 Z" 
        fill="#333" />
            </g>
            <g>
               <path d="M25, 40 L25 415.5 Q25 419.5
                29 419.5
                L42 419.5 "
        style="fill:none; stroke:#444; stroke-width:1" />
               <path d="M42, 416.5 L50, 419.5 L42, 422.5 Z" 
        fill="#333" />
            </g>
            <g>
               <path d="M25, 40 L25 464 Q25 468
                29 468
                L42 468 "
        style="fill:none; stroke:#444; stroke-width:1" />
               <path d="M42, 465 L50, 468 L42, 471 Z" 
        fill="#333" />
            </g>
            <g>
               <path d="M25, 40 L25 512.5 Q25 516.5
                29 516.5
                L42 516.5 "
        style="fill:none; stroke:#444; stroke-width:1" />
               <path d="M42, 513.5 L50, 516.5 L42, 519.5 Z" 
        fill="#333" />
            </g>
            <g>
               <path d="M25, 40 L25 561 Q25 565
                29 565
                L42 565 "
        style="fill:none; stroke:#444; stroke-width:1" />
               <path d="M42, 562 L50, 565 L42, 568 Z" 
        fill="#333" />
            </g>
            <g>
               <path d="M25, 40 L25 609.5 Q25 613.5
                29 613.5
                L42 613.5 "
        style="fill:none; stroke:#444; stroke-width:1" />
               <path d="M42, 610.5 L50, 613.5 L42, 616.5 Z" 
        fill="#333" />
            </g>
            <g>
               <path d="M25, 40 L25 658 Q25 662
                29 662
                L42 662 "
        style="fill:none; stroke:#444; stroke-width:1" />
               <path d="M42, 659 L50, 662 L42, 665 Z" 
        fill="#333" />
            </g>
            <g>
               <path d="M25, 40 L25 706.5 Q25 710.5
                29 710.5
                L42 710.5 "
        style="fill:none; stroke:#444; stroke-width:1" />
               <path d="M42, 707.5 L50, 710.5 L42, 713.5 Z" 
        fill="#333" />
            </g>
            <g>
               <path d="M25, 40 L25 755 Q25 759
                29 759
                L42 759 "
        style="fill:none; stroke:#444; stroke-width:1" />
               <path d="M42, 756 L50, 759 L42, 762 Z" 
        fill="#333" />
            </g>
            <g>
               <path d="M25, 40 L25 803.5 Q25 807.5
                29 807.5
                L42 807.5 "
        style="fill:none; stroke:#444; stroke-width:1" />
               <path d="M42, 804.5 L50, 807.5 L42, 810.5 Z" 
        fill="#333" />
            </g>
            <g>
               <path d="M25, 40 L25 852 Q25 856
                29 856
                L42 856 "
        style="fill:none; stroke:#444; stroke-width:1" />
               <path d="M42, 853 L50, 856 L42, 859 Z" 
        fill="#333" />
            </g>
            <g>
               <path d="M25, 40 L25 900.5 Q25 904.5
                29 904.5
                L42 904.5 "
        style="fill:none; stroke:#444; stroke-width:1" />
               <path d="M42, 901.5 L50, 904.5 L42, 907.5 Z" 
        fill="#333" />
            </g>
            <g>
               <path d="M25, 40 L25 949 Q25 953
                29 953
                L42 953 "
        style="fill:none; stroke:#444; stroke-width:1" />
               <path d="M42, 950 L50, 953 L42, 956 Z" 
        fill="#333" />
            </g>
            <g>
               <path d="M25, 40 L25 997.5 Q25 1001.5
                29 1001.5
                L42 1001.5 "
        style="fill:none; stroke:#444; stroke-width:1" />
               <path d="M42, 998.5 L50, 1001.5 L42, 1004.5 Z" 
        fill="#333" />
            </g>
            <g>
               <path d="M25, 40 L25 1046 Q25 1050
                29 1050
                L42 1050 "
        style="fill:none; stroke:#444; stroke-width:1" />
               <path d="M42, 1047 L50, 1050 L42, 1053 Z" 
        fill="#333" />
            </g>
            <g>
               <path d="M25, 40 L25 1094.5 Q25 1098.5
                29 1098.5
                L42 1098.5 "
        style="fill:none; stroke:#444; stroke-width:1" />
               <path d="M42, 1095.5 L50, 1098.5 L42, 1101.5 Z" 
        fill="#333" />
            </g>
            </svg>